<mxfile host="app.diagrams.net" modified="2022-01-08T06:30:08.665Z" agent="5.0 (Macintosh; Intel Mac OS X 10_15_7) AppleWebKit/605.1.15 (KHTML, like Gecko) Version/15.1 Safari/605.1.15" etag="91srucmZu4Dw2JtlWu1q" version="16.2.2" type="github">
  <diagram id="w_BTVHwSZHI-UWdey-mf" name="Page-1">
    <mxGraphModel dx="1058" dy="477" grid="1" gridSize="10" guides="1" tooltips="1" connect="1" arrows="1" fold="1" page="1" pageScale="1" pageWidth="827" pageHeight="1169" math="0" shadow="0">
      <root>
        <mxCell id="0" />
        <mxCell id="1" parent="0" />
        <mxCell id="mM9JtpKETj5EdZdufdyy-14" style="edgeStyle=orthogonalEdgeStyle;rounded=0;orthogonalLoop=1;jettySize=auto;html=1;entryX=0.5;entryY=0;entryDx=0;entryDy=0;" edge="1" parent="1" source="mM9JtpKETj5EdZdufdyy-1" target="mM9JtpKETj5EdZdufdyy-2">
          <mxGeometry relative="1" as="geometry" />
        </mxCell>
        <mxCell id="mM9JtpKETj5EdZdufdyy-1" value="stockdeallist" style="rounded=1;whiteSpace=wrap;html=1;" vertex="1" parent="1">
          <mxGeometry x="96" y="90" width="120" height="50" as="geometry" />
        </mxCell>
        <mxCell id="mM9JtpKETj5EdZdufdyy-11" style="edgeStyle=orthogonalEdgeStyle;rounded=0;orthogonalLoop=1;jettySize=auto;html=1;exitX=0.5;exitY=1;exitDx=0;exitDy=0;" edge="1" parent="1" source="mM9JtpKETj5EdZdufdyy-2" target="mM9JtpKETj5EdZdufdyy-6">
          <mxGeometry relative="1" as="geometry" />
        </mxCell>
        <mxCell id="mM9JtpKETj5EdZdufdyy-2" value="從dropbox下載deallist&lt;br&gt;csvfile&lt;br&gt;stock.deallist.drop_to_db&lt;br&gt;()" style="rounded=0;whiteSpace=wrap;html=1;" vertex="1" parent="1">
          <mxGeometry x="81.5" y="200" width="149" height="60" as="geometry" />
        </mxCell>
        <mxCell id="mM9JtpKETj5EdZdufdyy-3" value="取得多個日期、多個股票的交易明細&lt;br&gt;df&lt;br&gt;stock.deallist.twse.get&lt;br&gt;(dates, stocks)" style="rounded=0;whiteSpace=wrap;html=1;" vertex="1" parent="1">
          <mxGeometry x="44" y="585" width="224" height="60" as="geometry" />
        </mxCell>
        <mxCell id="mM9JtpKETj5EdZdufdyy-12" style="edgeStyle=orthogonalEdgeStyle;rounded=0;orthogonalLoop=1;jettySize=auto;html=1;exitX=0.5;exitY=0.88;exitDx=0;exitDy=0;exitPerimeter=0;entryX=0.5;entryY=0;entryDx=0;entryDy=0;" edge="1" parent="1" source="mM9JtpKETj5EdZdufdyy-5" target="mM9JtpKETj5EdZdufdyy-3">
          <mxGeometry relative="1" as="geometry" />
        </mxCell>
        <mxCell id="mM9JtpKETj5EdZdufdyy-5" value="deallist.csv" style="strokeWidth=2;html=1;shape=mxgraph.flowchart.multi-document;whiteSpace=wrap;" vertex="1" parent="1">
          <mxGeometry x="112" y="490" width="88" height="60" as="geometry" />
        </mxCell>
        <mxCell id="mM9JtpKETj5EdZdufdyy-8" style="edgeStyle=orthogonalEdgeStyle;rounded=0;orthogonalLoop=1;jettySize=auto;html=1;" edge="1" parent="1" source="mM9JtpKETj5EdZdufdyy-6" target="mM9JtpKETj5EdZdufdyy-7">
          <mxGeometry relative="1" as="geometry" />
        </mxCell>
        <mxCell id="mM9JtpKETj5EdZdufdyy-6" value="列出雲端檔案清單&lt;br&gt;drop.list.files&lt;br&gt;(dir.drop.deallist)" style="rounded=0;whiteSpace=wrap;html=1;" vertex="1" parent="1">
          <mxGeometry x="96" y="290" width="120" height="60" as="geometry" />
        </mxCell>
        <mxCell id="mM9JtpKETj5EdZdufdyy-9" style="edgeStyle=orthogonalEdgeStyle;rounded=0;orthogonalLoop=1;jettySize=auto;html=1;exitX=0.5;exitY=1;exitDx=0;exitDy=0;entryX=0.5;entryY=0;entryDx=0;entryDy=0;entryPerimeter=0;" edge="1" parent="1" source="mM9JtpKETj5EdZdufdyy-7" target="mM9JtpKETj5EdZdufdyy-5">
          <mxGeometry relative="1" as="geometry" />
        </mxCell>
        <mxCell id="mM9JtpKETj5EdZdufdyy-10" value="loop" style="edgeStyle=orthogonalEdgeStyle;rounded=0;orthogonalLoop=1;jettySize=auto;html=1;entryX=1;entryY=0.367;entryDx=0;entryDy=0;entryPerimeter=0;" edge="1" parent="1" source="mM9JtpKETj5EdZdufdyy-7" target="mM9JtpKETj5EdZdufdyy-6">
          <mxGeometry relative="1" as="geometry">
            <Array as="points">
              <mxPoint x="236" y="410" />
              <mxPoint x="236" y="312" />
            </Array>
          </mxGeometry>
        </mxCell>
        <mxCell id="mM9JtpKETj5EdZdufdyy-7" value="下載檔案&lt;br&gt;drop_download&lt;br&gt;(file.drop,file.local)" style="rounded=0;whiteSpace=wrap;html=1;" vertex="1" parent="1">
          <mxGeometry x="96" y="380" width="120" height="60" as="geometry" />
        </mxCell>
      </root>
    </mxGraphModel>
  </diagram>
</mxfile>
